<svg xmlns="http://www.w3.org/2000/svg" width="15" height="15" viewBox="0 0 15 15" fill="none">
<path d="M12.5393 6.5625H8.43774C8.06478 6.5625 7.7071 6.41434 7.44337 6.15062C7.17965 5.88689 7.03149 5.52921 7.03149 5.15625V1.05469C7.03149 1.02361 7.01915 0.9938 6.99717 0.971823C6.97519 0.949847 6.94539 0.9375 6.91431 0.9375H4.21899C3.72171 0.9375 3.2448 1.13504 2.89317 1.48667C2.54154 1.83831 2.34399 2.31522 2.34399 2.8125V12.1875C2.34399 12.6848 2.54154 13.1617 2.89317 13.5133C3.2448 13.865 3.72171 14.0625 4.21899 14.0625H10.7815C11.2788 14.0625 11.7557 13.865 12.1073 13.5133C12.4589 13.1617 12.6565 12.6848 12.6565 12.1875V6.67969C12.6565 6.64861 12.6441 6.6188 12.6222 6.59682C12.6002 6.57484 12.5704 6.5625 12.5393 6.5625Z" fill="#F8FCF8"/>
<path d="M12.2821 5.52612L8.0689 1.31294C8.0607 1.30479 8.05029 1.29925 8.03895 1.29701C8.02762 1.29477 8.01587 1.29593 8.0052 1.30034C7.99452 1.30476 7.98539 1.31223 7.97895 1.32182C7.97251 1.33141 7.96904 1.34269 7.96899 1.35425V5.15727C7.96899 5.28159 8.01838 5.40082 8.10629 5.48873C8.1942 5.57664 8.31342 5.62602 8.43774 5.62602H12.2408C12.2523 5.62598 12.2636 5.62251 12.2732 5.61607C12.2828 5.60963 12.2903 5.6005 12.2947 5.58982C12.2991 5.57914 12.3002 5.5674 12.298 5.55607C12.2958 5.54473 12.2902 5.53431 12.2821 5.52612Z" fill="#F8FCF8"/>
</svg>
