<svg xmlns="http://www.w3.org/2000/svg" width="16" height="15" viewBox="0 0 16 15" fill="none">
  <path d="M11.75 5C11.75 5.33152 11.6183 5.64946 11.3839 5.88388C11.1495 6.1183 10.8315 6.25 10.5 6.25C10.1685 6.25 9.85054 6.1183 9.61612 5.88388C9.3817 5.64946 9.25 5.33152 9.25 5C9.25 4.66848 9.3817 4.35054 9.61612 4.11612C9.85054 3.8817 10.1685 3.75 10.5 3.75C10.8315 3.75 11.1495 3.8817 11.3839 4.11612C11.6183 4.35054 11.75 4.66848 11.75 5Z" fill="#F8FCF8"/>
  <path fill-rule="evenodd" clip-rule="evenodd" d="M7.96438 0.78125H8.03562C9.47875 0.78125 10.6094 0.78125 11.4919 0.9C12.3944 1.02125 13.1069 1.275 13.6663 1.83375C14.2256 2.39313 14.4787 3.10562 14.6 4.00875C14.7188 4.89062 14.7188 6.02125 14.7188 7.46438V7.51937C14.7188 8.7125 14.7188 9.68875 14.6537 10.4838C14.5887 11.2838 14.4556 11.9506 14.1569 12.5056C14.0256 12.75 13.8631 12.9694 13.6663 13.1663C13.1069 13.7256 12.3944 13.9787 11.4913 14.1C10.6094 14.2188 9.47875 14.2188 8.03562 14.2188H7.96438C6.52125 14.2188 5.39062 14.2188 4.50813 14.1C3.60563 13.9787 2.89313 13.725 2.33375 13.1663C1.83812 12.6706 1.58188 12.0538 1.44625 11.2875C1.31188 10.5356 1.2875 9.6 1.2825 8.43875C1.28125 8.14313 1.28125 7.83063 1.28125 7.50063V7.46438C1.28125 6.02125 1.28125 4.89062 1.4 4.00813C1.52125 3.10563 1.775 2.39313 2.33375 1.83375C2.89313 1.27438 3.60562 1.02125 4.50875 0.9C5.39062 0.78125 6.52125 0.78125 7.96438 0.78125ZM4.63312 1.82875C3.83437 1.93625 3.3525 2.14125 2.99687 2.49687C2.64062 2.85312 2.43625 3.33437 2.32875 4.13375C2.22 4.94625 2.21875 6.01375 2.21875 7.5V8.0275L2.84437 7.48C3.1188 7.23978 3.47426 7.11285 3.83877 7.12492C4.20328 7.13699 4.54957 7.28716 4.8075 7.545L7.48875 10.2262C7.69682 10.4343 7.97159 10.5622 8.26472 10.5876C8.55784 10.613 8.85052 10.5342 9.09125 10.365L9.2775 10.2338C9.6248 9.98971 10.0446 9.87073 10.4683 9.89628C10.892 9.92182 11.2945 10.0904 11.61 10.3744L13.3788 11.9662C13.5575 11.5925 13.6631 11.1012 13.7194 10.4081C13.7806 9.655 13.7812 8.71625 13.7812 7.5C13.7812 6.01375 13.78 4.94625 13.6712 4.13375C13.5637 3.33437 13.3587 2.8525 13.0031 2.49625C12.6469 2.14062 12.1656 1.93625 11.3663 1.82875C10.5538 1.72 9.48625 1.71875 8 1.71875C6.51375 1.71875 5.44562 1.72 4.63312 1.82875Z" fill="#F8FCF8"/>
</svg>
