<svg width="15" height="16" viewBox="0 0 15 16" fill="none" xmlns="http://www.w3.org/2000/svg">
<g id="IONIcon/N/notifications/default">
<path id="Vector" d="M12.893 10.8694C12.8444 10.8108 12.7966 10.7522 12.7498 10.6957C12.1052 9.91611 11.7153 9.4456 11.7153 7.23867C11.7153 6.09609 11.4419 5.15859 10.9032 4.45547C10.5059 3.93603 9.9689 3.54199 9.26109 3.25078C9.25198 3.24571 9.24385 3.23907 9.23707 3.23115C8.98248 2.37861 8.2858 1.80762 7.50005 1.80762C6.71431 1.80762 6.01793 2.37861 5.76334 3.23027C5.75654 3.2379 5.74852 3.24433 5.73961 3.24932C4.08785 3.9293 3.28511 5.23389 3.28511 7.23779C3.28511 9.4456 2.89576 9.91611 2.25064 10.6948C2.20377 10.7514 2.15601 10.8088 2.10738 10.8686C1.98176 11.0201 1.90216 11.2044 1.87802 11.3997C1.85388 11.595 1.8862 11.7932 1.97115 11.9707C2.15191 12.3516 2.53717 12.588 2.97691 12.588H12.0264C12.4641 12.588 12.8467 12.3519 13.0281 11.9727C13.1134 11.7952 13.146 11.5969 13.1221 11.4013C13.0982 11.2058 13.0187 11.0212 12.893 10.8694Z" fill="#F8FCF8"/>
<path id="Vector_2" d="M7.49995 14.9331C7.9233 14.9328 8.33866 14.8178 8.70199 14.6005C9.06531 14.3832 9.36305 14.0717 9.56362 13.6988C9.57307 13.681 9.57773 13.661 9.57717 13.6408C9.5766 13.6205 9.57081 13.6008 9.56038 13.5835C9.54994 13.5662 9.5352 13.5519 9.5176 13.542C9.49999 13.532 9.48012 13.5268 9.45991 13.5269H5.54057C5.52034 13.5268 5.50043 13.532 5.48278 13.5419C5.46514 13.5518 5.45036 13.5661 5.43989 13.5834C5.42941 13.6007 5.4236 13.6204 5.42302 13.6407C5.42244 13.6609 5.42711 13.6809 5.43657 13.6988C5.63712 14.0716 5.93481 14.3832 6.29807 14.6005C6.66134 14.8178 7.07665 14.9327 7.49995 14.9331Z" fill="#F8FCF8"/>
</g>
</svg>
