<svg width="15" height="16" viewBox="0 0 15 16" fill="none" xmlns="http://www.w3.org/2000/svg">
<g id="IONIcon/R/rocket/sharp" clip-path="url(#clip0_454_1438)">
<path id="Vector" d="M13.9933 2.00655C13.9879 1.98063 13.9753 1.95679 13.9569 1.93779C13.9384 1.9188 13.915 1.90546 13.8892 1.89932C12.1733 1.47979 8.20859 2.97481 6.06054 5.12197C5.67742 5.502 5.32815 5.91469 5.0167 6.35537C4.35429 6.29678 3.69189 6.3457 3.12734 6.5918C1.53447 7.29287 1.0707 9.12217 0.941501 9.90908C0.934173 9.95215 0.936937 9.99634 0.949577 10.0382C0.962216 10.08 0.984386 10.1183 1.01434 10.1501C1.0443 10.1819 1.08123 10.2063 1.12222 10.2214C1.16321 10.2366 1.20715 10.2419 1.25058 10.2372L3.80849 9.95508C3.81032 10.1479 3.82196 10.3406 3.84336 10.5322C3.85623 10.6653 3.91531 10.7897 4.01035 10.8838L5.00087 11.872C5.09503 11.9669 5.21938 12.0259 5.35244 12.039C5.54303 12.0603 5.73459 12.0719 5.92636 12.0738L5.6457 14.6285C5.64102 14.6719 5.64646 14.7158 5.66159 14.7568C5.67673 14.7978 5.70115 14.8347 5.73294 14.8646C5.76472 14.8946 5.80302 14.9167 5.84481 14.9294C5.8866 14.9421 5.93076 14.9449 5.97382 14.9376C6.75927 14.8116 8.59179 14.3478 9.28876 12.755C9.53486 12.1904 9.58525 11.5312 9.52841 10.8721C9.97016 10.5606 10.3839 10.2112 10.765 9.82793C12.9198 7.68398 14.4063 3.80772 13.9933 2.00655ZM8.61523 7.27031C8.41847 7.07368 8.28445 6.82311 8.23011 6.5503C8.17578 6.27749 8.20357 5.99469 8.30998 5.73768C8.41639 5.48067 8.59663 5.26099 8.8279 5.10643C9.05918 4.95187 9.3311 4.86937 9.60927 4.86937C9.88744 4.86937 10.1594 4.95187 10.3906 5.10643C10.6219 5.26099 10.8022 5.48067 10.9086 5.73768C11.015 5.99469 11.0428 6.27749 10.9884 6.5503C10.9341 6.82311 10.8001 7.07368 10.6033 7.27031C10.4728 7.40097 10.3179 7.50463 10.1473 7.57535C9.97676 7.64607 9.79392 7.68247 9.60927 7.68247C9.42462 7.68247 9.24179 7.64607 9.07122 7.57535C8.90065 7.50463 8.7457 7.40097 8.61523 7.27031Z" fill="#F8FCF8"/>
<path id="Vector_2" d="M4.93347 12.5878C4.77292 12.7486 4.5154 12.8113 4.20544 12.8649C3.50906 12.9836 2.89412 12.3818 3.01921 11.6778C3.06697 11.4109 3.20818 11.0368 3.29607 10.9489C3.31528 10.9301 3.32807 10.9057 3.33261 10.8792C3.33716 10.8526 3.33324 10.8254 3.3214 10.8012C3.30956 10.777 3.29041 10.7572 3.26667 10.7445C3.24292 10.7319 3.2158 10.727 3.18914 10.7307C2.79971 10.7783 2.43742 10.9549 2.15994 11.2322C1.47117 11.9216 1.40613 14.4795 1.40613 14.4795C1.40613 14.4795 3.9655 14.4145 4.65427 13.7251C4.93249 13.4478 5.10927 13.085 5.15613 12.695C5.16697 12.5726 5.01785 12.4996 4.93347 12.5878Z" fill="#F8FCF8"/>
</g>
<defs>
<clipPath id="clip0_454_1438">
<rect width="15" height="15" fill="white" transform="translate(-0.00012207 0.88501)"/>
</clipPath>
</defs>
</svg>
